<mxfile host="app.diagrams.net" modified="2023-09-28T10:46:39.450Z" agent="Mozilla/5.0 (Windows NT 10.0; Win64; x64; rv:109.0) Gecko/20100101 Firefox/117.0" etag="FeE94wHAdlcEciREvbK4" version="21.8.2" type="device">
  <diagram name="Página-1" id="_QKOaySEO_qiB4ECoKQt">
    <mxGraphModel dx="1198" dy="324" grid="1" gridSize="10" guides="1" tooltips="1" connect="1" arrows="1" fold="1" page="1" pageScale="1" pageWidth="827" pageHeight="1169" math="0" shadow="0">
      <root>
        <mxCell id="0" />
        <mxCell id="1" parent="0" />
        <mxCell id="MXznbU7UBzxt8fm9zecM-3" value="" style="edgeStyle=orthogonalEdgeStyle;rounded=0;orthogonalLoop=1;jettySize=auto;html=1;" edge="1" parent="1" source="MXznbU7UBzxt8fm9zecM-1" target="MXznbU7UBzxt8fm9zecM-2">
          <mxGeometry relative="1" as="geometry" />
        </mxCell>
        <mxCell id="MXznbU7UBzxt8fm9zecM-1" value="Inici" style="ellipse;whiteSpace=wrap;html=1;aspect=fixed;" vertex="1" parent="1">
          <mxGeometry x="240" y="10" width="40" height="40" as="geometry" />
        </mxCell>
        <mxCell id="MXznbU7UBzxt8fm9zecM-5" value="" style="edgeStyle=orthogonalEdgeStyle;rounded=0;orthogonalLoop=1;jettySize=auto;html=1;" edge="1" parent="1" source="MXznbU7UBzxt8fm9zecM-2" target="MXznbU7UBzxt8fm9zecM-4">
          <mxGeometry relative="1" as="geometry" />
        </mxCell>
        <mxCell id="MXznbU7UBzxt8fm9zecM-2" value="Llegir l&#39;edat" style="whiteSpace=wrap;html=1;" vertex="1" parent="1">
          <mxGeometry x="200" y="82" width="120" height="30" as="geometry" />
        </mxCell>
        <mxCell id="MXznbU7UBzxt8fm9zecM-7" value="" style="edgeStyle=orthogonalEdgeStyle;rounded=0;orthogonalLoop=1;jettySize=auto;html=1;entryX=0.5;entryY=0;entryDx=0;entryDy=0;" edge="1" parent="1" source="MXznbU7UBzxt8fm9zecM-4" target="MXznbU7UBzxt8fm9zecM-12">
          <mxGeometry relative="1" as="geometry">
            <mxPoint x="150" y="210" as="targetPoint" />
          </mxGeometry>
        </mxCell>
        <mxCell id="MXznbU7UBzxt8fm9zecM-8" value="Sí" style="edgeLabel;html=1;align=center;verticalAlign=middle;resizable=0;points=[];" vertex="1" connectable="0" parent="MXznbU7UBzxt8fm9zecM-7">
          <mxGeometry x="-0.4635" relative="1" as="geometry">
            <mxPoint as="offset" />
          </mxGeometry>
        </mxCell>
        <mxCell id="MXznbU7UBzxt8fm9zecM-10" value="" style="edgeStyle=orthogonalEdgeStyle;rounded=0;orthogonalLoop=1;jettySize=auto;html=1;" edge="1" parent="1" source="MXznbU7UBzxt8fm9zecM-4" target="MXznbU7UBzxt8fm9zecM-9">
          <mxGeometry relative="1" as="geometry" />
        </mxCell>
        <mxCell id="MXznbU7UBzxt8fm9zecM-4" value="edat &amp;gt; 0" style="rhombus;whiteSpace=wrap;html=1;" vertex="1" parent="1">
          <mxGeometry x="220" y="150" width="80" height="43" as="geometry" />
        </mxCell>
        <mxCell id="MXznbU7UBzxt8fm9zecM-9" value="Mostrar: &quot;Edat no vàlida&quot;" style="whiteSpace=wrap;html=1;" vertex="1" parent="1">
          <mxGeometry x="310" y="230" width="120" height="30" as="geometry" />
        </mxCell>
        <mxCell id="MXznbU7UBzxt8fm9zecM-11" value="fi" style="ellipse;whiteSpace=wrap;html=1;aspect=fixed;" vertex="1" parent="1">
          <mxGeometry x="240" y="430" width="40" height="40" as="geometry" />
        </mxCell>
        <mxCell id="MXznbU7UBzxt8fm9zecM-14" value="" style="edgeStyle=orthogonalEdgeStyle;rounded=0;orthogonalLoop=1;jettySize=auto;html=1;" edge="1" parent="1" source="MXznbU7UBzxt8fm9zecM-12" target="MXznbU7UBzxt8fm9zecM-13">
          <mxGeometry relative="1" as="geometry" />
        </mxCell>
        <mxCell id="MXznbU7UBzxt8fm9zecM-12" value="edat &amp;gt;=18" style="rhombus;whiteSpace=wrap;html=1;" vertex="1" parent="1">
          <mxGeometry x="110" y="200" width="80" height="43" as="geometry" />
        </mxCell>
        <mxCell id="MXznbU7UBzxt8fm9zecM-13" value="Mostrar: &quot;Ets major d&#39;edat&quot;" style="whiteSpace=wrap;html=1;" vertex="1" parent="1">
          <mxGeometry x="-20" y="280" width="120" height="30" as="geometry" />
        </mxCell>
        <mxCell id="MXznbU7UBzxt8fm9zecM-15" value="Mostrar: &quot;Ets menor d&#39;edat&quot;" style="whiteSpace=wrap;html=1;" vertex="1" parent="1">
          <mxGeometry x="154" y="280" width="120" height="30" as="geometry" />
        </mxCell>
        <mxCell id="MXznbU7UBzxt8fm9zecM-16" value="" style="endArrow=classic;html=1;rounded=0;exitX=1;exitY=0.5;exitDx=0;exitDy=0;entryX=0.554;entryY=-0.11;entryDx=0;entryDy=0;entryPerimeter=0;" edge="1" parent="1" source="MXznbU7UBzxt8fm9zecM-12" target="MXznbU7UBzxt8fm9zecM-15">
          <mxGeometry width="50" height="50" relative="1" as="geometry">
            <mxPoint x="90" y="270" as="sourcePoint" />
            <mxPoint x="140" y="220" as="targetPoint" />
            <Array as="points">
              <mxPoint x="220" y="222" />
            </Array>
          </mxGeometry>
        </mxCell>
        <mxCell id="MXznbU7UBzxt8fm9zecM-17" value="" style="endArrow=classic;html=1;rounded=0;exitX=0.5;exitY=1;exitDx=0;exitDy=0;" edge="1" parent="1" source="MXznbU7UBzxt8fm9zecM-13">
          <mxGeometry width="50" height="50" relative="1" as="geometry">
            <mxPoint x="90" y="270" as="sourcePoint" />
            <mxPoint x="150" y="360" as="targetPoint" />
            <Array as="points">
              <mxPoint x="40" y="360" />
            </Array>
          </mxGeometry>
        </mxCell>
        <mxCell id="MXznbU7UBzxt8fm9zecM-18" value="" style="endArrow=classic;html=1;rounded=0;exitX=0.572;exitY=0.993;exitDx=0;exitDy=0;exitPerimeter=0;" edge="1" parent="1" source="MXznbU7UBzxt8fm9zecM-15">
          <mxGeometry width="50" height="50" relative="1" as="geometry">
            <mxPoint x="90" y="270" as="sourcePoint" />
            <mxPoint x="150" y="360" as="targetPoint" />
            <Array as="points">
              <mxPoint x="223" y="360" />
            </Array>
          </mxGeometry>
        </mxCell>
        <mxCell id="MXznbU7UBzxt8fm9zecM-19" value="" style="endArrow=classic;html=1;rounded=0;exitX=0.5;exitY=1;exitDx=0;exitDy=0;entryX=0.481;entryY=-0.109;entryDx=0;entryDy=0;entryPerimeter=0;" edge="1" parent="1" source="MXznbU7UBzxt8fm9zecM-9" target="MXznbU7UBzxt8fm9zecM-11">
          <mxGeometry width="50" height="50" relative="1" as="geometry">
            <mxPoint x="210" y="350" as="sourcePoint" />
            <mxPoint x="260" y="300" as="targetPoint" />
            <Array as="points">
              <mxPoint x="370" y="400" />
              <mxPoint x="259" y="400" />
            </Array>
          </mxGeometry>
        </mxCell>
        <mxCell id="MXznbU7UBzxt8fm9zecM-20" value="" style="endArrow=classic;html=1;rounded=0;" edge="1" parent="1">
          <mxGeometry width="50" height="50" relative="1" as="geometry">
            <mxPoint x="150" y="360" as="sourcePoint" />
            <mxPoint x="260" y="420" as="targetPoint" />
            <Array as="points">
              <mxPoint x="150" y="400" />
              <mxPoint x="260" y="400" />
            </Array>
          </mxGeometry>
        </mxCell>
      </root>
    </mxGraphModel>
  </diagram>
</mxfile>
